<svg xmlns="http://www.w3.org/2000/svg" width="23" height="24" viewBox="0 0 23 24"><defs><style>.a{fill:rgba(255,255,255,0);}</style></defs><g transform="translate(-232 -644)"><path class="a" d="M0,0H23V24H0Z" transform="translate(232 644)"/><path d="M21.757,14.68a5.43,5.43,0,0,1,2.591-4.569A5.6,5.6,0,0,0,19.96,7.732c-1.869-.189-3.647,1.1-4.6,1.1S12.955,7.76,11.4,7.789A5.872,5.872,0,0,0,6.44,10.8C4.324,14.47,5.9,19.911,7.961,22.889c1.008,1.458,2.21,3.1,3.788,3.037,1.52-.061,2.094-.983,3.932-.983s2.354.983,3.962.953c1.635-.03,2.671-1.486,3.672-2.948a13.229,13.229,0,0,0,1.662-3.413,5.3,5.3,0,0,1-3.22-4.855ZM18.735,5.761a5.289,5.289,0,0,0,1.249-3.832,5.38,5.38,0,0,0-3.535,1.818,5.031,5.031,0,0,0-1.274,3.713A4.451,4.451,0,0,0,18.735,5.761Z" transform="translate(228.564 642.072)"/></g></svg>