<svg xmlns="http://www.w3.org/2000/svg" width="23" height="24" viewBox="0 0 23 24"><defs><style>.a{fill:#fff;}.b{fill:rgba(255,255,255,0);}</style></defs><g transform="translate(-65 -643)"><path class="a" d="M24.373,12.367l-.107-.455H14.383V16.1h5.9a5.91,5.91,0,0,1-5.782,4.444,6.915,6.915,0,0,1-4.653-1.854A6.643,6.643,0,0,1,7.87,14,6.852,6.852,0,0,1,9.816,9.312,6.62,6.62,0,0,1,14.439,7.5a6.029,6.029,0,0,1,3.933,1.532l2.973-2.957a10.518,10.518,0,0,0-7-2.7h0A10.826,10.826,0,0,0,6.68,6.5,10.782,10.782,0,0,0,3.656,14a10.673,10.673,0,0,0,2.906,7.381,11.087,11.087,0,0,0,7.994,3.243,9.86,9.86,0,0,0,7.182-3.019A10.6,10.6,0,0,0,24.5,14.262,12.231,12.231,0,0,0,24.373,12.367Z" transform="translate(62.344 640.618)"/><rect class="b" width="23" height="24" transform="translate(65 643)"/></g></svg>